<svg width="229" height="178" viewBox="0 0 229 178" fill="none" xmlns="http://www.w3.org/2000/svg">
<path d="M18.9635 85.6614C18.7326 85.6616 18.5112 85.7526 18.3479 85.9143C18.1846 86.0761 18.0928 86.2953 18.0925 86.5241V175.726C18.0928 175.955 18.1846 176.174 18.3479 176.336C18.5112 176.498 18.7326 176.589 18.9635 176.589H131.887C132.118 176.589 132.339 176.498 132.503 176.336C132.666 176.174 132.758 175.955 132.758 175.726V100.843C132.758 100.614 132.666 100.395 132.503 100.233C132.339 100.071 132.118 99.9803 131.887 99.98H67.0764C66.4184 99.9806 65.784 99.7378 65.2974 99.2993L50.727 86.1873C50.3511 85.8485 49.8611 85.661 49.3529 85.6614H18.9635Z" fill="#3A3A3C"/>
<path d="M71.1158 74.1342C70.9747 74.0523 70.8066 74.0292 70.6483 74.0699C70.49 74.1107 70.3545 74.2119 70.2714 74.3514L36.8303 130.713C36.7476 130.852 36.7242 131.019 36.7653 131.176C36.8064 131.332 36.9086 131.467 37.0496 131.549L82.8937 158.231C83.0348 158.313 83.203 158.336 83.3612 158.296C83.5195 158.255 83.6551 158.154 83.7381 158.014L117.179 101.653C117.262 101.513 117.285 101.347 117.244 101.19C117.203 101.033 117.101 100.899 116.96 100.817L71.1158 74.1342Z" fill="#EBEBF0"/>
<path d="M71.8176 76.81C71.6765 76.7281 71.5084 76.705 71.3501 76.7457C71.1918 76.7864 71.0562 76.8877 70.9732 77.0272L39.5323 130.017C39.4496 130.157 39.4262 130.324 39.4673 130.48C39.5085 130.637 39.6107 130.771 39.7516 130.854L82.192 155.555C82.3331 155.637 82.5013 155.66 82.6596 155.619C82.8179 155.579 82.9534 155.477 83.0364 155.338L114.477 102.348C114.56 102.208 114.583 102.041 114.542 101.885C114.501 101.728 114.399 101.594 114.258 101.511L71.8176 76.81Z" fill="white"/>
<path d="M63.7988 102.987L95.0707 121.188C95.1755 121.249 95.2914 121.289 95.4117 121.305C95.5321 121.322 95.6545 121.315 95.7721 121.285C95.8897 121.254 96.0002 121.201 96.0972 121.129C96.1941 121.056 96.2757 120.966 96.3373 120.862C96.3989 120.758 96.4392 120.643 96.456 120.524C96.4728 120.405 96.4657 120.284 96.4351 120.167C96.4046 120.051 96.3512 119.941 96.2779 119.845C96.2047 119.749 96.1131 119.668 96.0083 119.607L64.7364 101.407C64.6316 101.345 64.5157 101.305 64.3953 101.288C64.2748 101.272 64.1522 101.279 64.0345 101.309C63.9167 101.339 63.8061 101.392 63.709 101.464C63.6119 101.537 63.5302 101.628 63.4686 101.732C63.407 101.836 63.3666 101.95 63.3499 102.07C63.3331 102.189 63.3403 102.31 63.371 102.427C63.4016 102.544 63.4552 102.653 63.5286 102.749C63.602 102.845 63.6938 102.926 63.7988 102.987V102.987Z" fill="#E6E6E6"/>
<path d="M72.2656 88.1081L93.0124 100.183C93.3047 100.353 93.7515 100.137 94.0105 99.701C94.2694 99.2646 94.2423 98.773 93.95 98.6029L73.2032 86.5279C72.9109 86.3577 72.464 86.5736 72.2051 87.01C71.9462 87.4463 71.9733 87.938 72.2656 88.1081Z" fill="#6B7588"/>
<path d="M69.5778 92.6379L90.3245 104.713C90.6168 104.883 91.0637 104.667 91.3226 104.231C91.5815 103.795 91.5544 103.303 91.2621 103.133L70.5154 91.0577C70.2231 90.8875 69.7763 91.1034 69.5174 91.5398C69.2585 91.9761 69.2855 92.4678 69.5778 92.6379Z" fill="#6B7588"/>
<path d="M60.7672 108.096L92.0391 126.297C92.2507 126.42 92.5028 126.454 92.7402 126.393C92.9776 126.332 93.1807 126.18 93.3049 125.971C93.4292 125.761 93.4644 125.512 93.4029 125.276C93.3413 125.041 93.188 124.84 92.9767 124.717L61.7048 106.516C61.4932 106.393 61.2411 106.359 61.0037 106.42C60.7663 106.481 60.5632 106.633 60.439 106.842C60.3147 107.052 60.2795 107.301 60.341 107.537C60.4026 107.772 60.5558 107.973 60.7672 108.096Z" fill="#E6E6E6"/>
<path d="M57.7357 113.206L89.0075 131.407C89.219 131.529 89.4712 131.564 89.7086 131.503C89.9459 131.442 90.1491 131.29 90.2733 131.08C90.3976 130.871 90.4328 130.621 90.3713 130.386C90.3097 130.151 90.1564 129.95 89.9451 129.826L58.6733 111.625C58.5685 111.564 58.4527 111.524 58.3323 111.508C58.212 111.491 58.0895 111.498 57.9719 111.528C57.8543 111.559 57.7438 111.612 57.6469 111.684C57.5499 111.757 57.4683 111.847 57.4067 111.951C57.3452 112.055 57.3048 112.17 57.288 112.289C57.2713 112.408 57.2783 112.529 57.3089 112.646C57.3394 112.762 57.3928 112.872 57.4661 112.968C57.5393 113.064 57.6309 113.145 57.7357 113.206V113.206Z" fill="#E6E6E6"/>
<path d="M54.7041 118.315L85.9759 136.516C86.1875 136.638 86.4395 136.673 86.6768 136.612C86.914 136.551 87.117 136.399 87.2412 136.189C87.3654 135.98 87.4007 135.73 87.3392 135.495C87.2778 135.26 87.1247 135.059 86.9135 134.936L55.6417 116.734C55.5369 116.674 55.421 116.634 55.3007 116.617C55.1803 116.6 55.0579 116.607 54.9403 116.638C54.8226 116.668 54.7122 116.721 54.6152 116.793C54.5183 116.866 54.4367 116.957 54.3751 117.06C54.3135 117.164 54.2732 117.279 54.2564 117.398C54.2396 117.517 54.2467 117.638 54.2773 117.755C54.3078 117.871 54.3612 117.981 54.4345 118.077C54.5077 118.173 54.5993 118.254 54.7041 118.315V118.315Z" fill="#E6E6E6"/>
<path d="M51.6724 123.424L82.9444 141.625C83.0492 141.686 83.165 141.726 83.2854 141.742C83.4057 141.759 83.5282 141.752 83.6458 141.722C83.7634 141.692 83.8739 141.639 83.9708 141.566C84.0678 141.494 84.1494 141.403 84.211 141.299C84.2725 141.195 84.3128 141.081 84.3296 140.961C84.3464 140.842 84.3393 140.721 84.3088 140.604C84.2782 140.488 84.2248 140.379 84.1516 140.283C84.0784 140.186 83.9868 140.106 83.882 140.045L52.61 121.844C52.3985 121.721 52.1462 121.686 51.9086 121.747C51.6711 121.808 51.4678 121.96 51.3435 122.17C51.2192 122.379 51.184 122.629 51.2457 122.864C51.3073 123.1 51.4609 123.301 51.6724 123.424Z" fill="#E6E6E6"/>
<path d="M48.641 128.534L79.9128 146.735C80.1244 146.858 80.3767 146.893 80.6142 146.831C80.8517 146.77 81.055 146.618 81.1793 146.409C81.3037 146.199 81.3389 145.949 81.2772 145.714C81.2155 145.479 81.062 145.277 80.8504 145.154L49.5785 126.953C49.4738 126.892 49.3579 126.853 49.2376 126.836C49.1172 126.819 48.9948 126.826 48.8771 126.857C48.7595 126.887 48.6491 126.94 48.5521 127.012C48.4552 127.085 48.3736 127.176 48.312 127.279C48.2504 127.383 48.2101 127.498 48.1933 127.617C48.1765 127.736 48.1836 127.857 48.2142 127.974C48.2447 128.09 48.2981 128.2 48.3713 128.296C48.4446 128.392 48.5362 128.473 48.641 128.534Z" fill="#E6E6E6"/>
<path d="M99.4959 110.838C102.187 110.838 104.369 108.677 104.369 106.012C104.369 103.346 102.187 101.185 99.4959 101.185C96.8045 101.185 94.6227 103.346 94.6227 106.012C94.6227 108.677 96.8045 110.838 99.4959 110.838Z" fill="#E6E6E6"/>
<path d="M32.2086 90.3653C32.0486 90.3318 31.8817 90.3625 31.7445 90.4507C31.6073 90.5389 31.5111 90.6774 31.4769 90.8358L17.7454 154.778C17.7116 154.937 17.7426 155.102 17.8317 155.238C17.9207 155.374 18.0605 155.469 18.2205 155.503L70.231 166.459C70.391 166.493 70.5579 166.462 70.6951 166.374C70.8322 166.286 70.9285 166.147 70.9627 165.989L84.6942 102.046C84.728 101.888 84.697 101.722 84.6079 101.587C84.5189 101.451 84.379 101.355 84.2191 101.322L32.2086 90.3653Z" fill="#EBEBF0"/>
<path d="M33.7286 92.6846C33.5686 92.6511 33.4017 92.6818 33.2645 92.77C33.1274 92.8582 33.0311 92.9967 32.9969 93.1551L20.0867 153.273C20.0529 153.431 20.0839 153.597 20.173 153.732C20.262 153.868 20.4018 153.964 20.5618 153.998L68.7108 164.14C68.8708 164.174 69.0377 164.143 69.1749 164.055C69.3121 163.967 69.4083 163.828 69.4426 163.67L82.3527 103.552C82.3866 103.394 82.3555 103.228 82.2665 103.092C82.1774 102.957 82.0376 102.861 81.8777 102.827L33.7286 92.6846Z" fill="white"/>
<path d="M69.9566 127.503L34.4784 120.029C34.3594 120.004 34.2465 119.957 34.1462 119.888C34.0458 119.82 33.96 119.733 33.8937 119.632C33.8273 119.531 33.7818 119.418 33.7596 119.3C33.7374 119.181 33.739 119.06 33.7643 118.942C33.7896 118.824 33.8381 118.712 33.9071 118.613C33.976 118.514 34.0641 118.429 34.1662 118.363C34.2683 118.298 34.3824 118.253 34.502 118.231C34.6217 118.209 34.7445 118.211 34.8634 118.236L70.3416 125.71C70.4607 125.735 70.5736 125.783 70.6739 125.851C70.7743 125.919 70.8601 126.006 70.9264 126.107C70.9927 126.208 71.0383 126.321 71.0605 126.439C71.0827 126.558 71.0811 126.68 71.0558 126.797C71.0305 126.915 70.982 127.027 70.913 127.126C70.8441 127.226 70.756 127.31 70.6539 127.376C70.5518 127.441 70.4377 127.486 70.318 127.508C70.1984 127.53 70.0756 127.528 69.9566 127.503Z" fill="#E6E6E6"/>
<path d="M73.8482 110.864L50.3108 105.906C49.9792 105.836 49.7965 105.378 49.9028 104.883C50.0091 104.388 50.3642 104.043 50.6958 104.113L74.2332 109.071C74.5648 109.141 74.7474 109.599 74.6411 110.094C74.5348 110.589 74.1798 110.934 73.8482 110.864Z" fill="#6B7588"/>
<path d="M72.7445 116.004L49.2071 111.046C48.8755 110.976 48.6929 110.518 48.7992 110.023C48.9055 109.528 49.2605 109.183 49.5921 109.253L73.1295 114.211C73.4612 114.281 73.6438 114.739 73.5375 115.234C73.4312 115.729 73.0762 116.074 72.7445 116.004Z" fill="#E6E6E6"/>
<path d="M68.7119 133.299L33.2336 125.826C32.994 125.775 32.7845 125.632 32.6512 125.428C32.5179 125.224 32.4717 124.976 32.5227 124.739C32.5737 124.502 32.7177 124.294 32.9232 124.161C33.1287 124.029 33.3788 123.983 33.6186 124.033L69.0969 131.507C69.2157 131.532 69.3284 131.58 69.4286 131.648C69.5287 131.716 69.6143 131.803 69.6805 131.904C69.7467 132.005 69.7921 132.118 69.8142 132.236C69.8364 132.354 69.8347 132.476 69.8095 132.594C69.7842 132.711 69.7357 132.823 69.6669 132.922C69.5981 133.021 69.5102 133.106 69.4082 133.172C69.3063 133.237 69.1924 133.282 69.0729 133.304C68.9534 133.326 68.8307 133.324 68.7119 133.299Z" fill="#E6E6E6"/>
<path d="M67.4669 139.096L31.9888 131.623C31.7491 131.572 31.5396 131.429 31.4063 131.225C31.273 131.021 31.2268 130.773 31.2778 130.536C31.3288 130.298 31.4729 130.091 31.6783 129.958C31.8838 129.826 32.1339 129.78 32.3738 129.83L67.8519 137.303C67.9708 137.328 68.0835 137.376 68.1836 137.445C68.2837 137.513 68.3693 137.6 68.4355 137.701C68.5017 137.802 68.5471 137.915 68.5692 138.033C68.5914 138.151 68.5898 138.273 68.5645 138.39C68.5392 138.508 68.4907 138.62 68.4219 138.719C68.3531 138.818 68.2652 138.903 68.1633 138.968C68.0614 139.034 67.9474 139.079 67.8279 139.101C67.7084 139.123 67.5858 139.121 67.4669 139.096Z" fill="#E6E6E6"/>
<path d="M66.2222 144.893L30.7439 137.419C30.6249 137.395 30.512 137.347 30.4116 137.279C30.3113 137.21 30.2255 137.123 30.1592 137.022C30.0929 136.921 30.0473 136.808 30.0251 136.69C30.0029 136.571 30.0045 136.45 30.0298 136.332C30.0551 136.214 30.1036 136.102 30.1726 136.003C30.2415 135.904 30.3296 135.819 30.4317 135.754C30.5337 135.688 30.6479 135.643 30.7675 135.621C30.8872 135.6 31.01 135.601 31.1289 135.627L66.6072 143.1C66.8468 143.151 67.0563 143.294 67.1896 143.498C67.3229 143.702 67.3691 143.95 67.3181 144.187C67.2671 144.425 67.1231 144.632 66.9176 144.765C66.7122 144.897 66.462 144.943 66.2222 144.893Z" fill="#E6E6E6"/>
<path d="M64.9774 150.689L29.4992 143.216C29.3802 143.191 29.2672 143.143 29.1669 143.075C29.0666 143.007 28.9808 142.92 28.9144 142.819C28.8481 142.718 28.8025 142.605 28.7803 142.487C28.7581 142.368 28.7597 142.246 28.785 142.129C28.8103 142.011 28.8588 141.899 28.9278 141.8C28.9968 141.7 29.0848 141.616 29.1869 141.55C29.289 141.485 29.4031 141.44 29.5228 141.418C29.6424 141.396 29.7652 141.398 29.8842 141.423L65.3624 148.897C65.4814 148.921 65.5943 148.969 65.6947 149.037C65.795 149.106 65.8808 149.193 65.9471 149.294C66.0135 149.395 66.059 149.508 66.0813 149.626C66.1035 149.744 66.1019 149.866 66.0766 149.984C66.0513 150.102 66.0027 150.214 65.9338 150.313C65.8648 150.412 65.7768 150.497 65.6747 150.562C65.5726 150.628 65.4584 150.673 65.3388 150.695C65.2191 150.716 65.0963 150.715 64.9774 150.689Z" fill="#E6E6E6"/>
<path d="M63.7325 156.486L28.2544 149.012C28.0147 148.962 27.8053 148.819 27.672 148.615C27.5387 148.411 27.4924 148.163 27.5434 147.926C27.5944 147.688 27.7385 147.481 27.944 147.348C28.1494 147.216 28.3995 147.17 28.6394 147.22L64.1175 154.693C64.2365 154.718 64.3495 154.766 64.4498 154.834C64.5501 154.902 64.6359 154.989 64.7023 155.09C64.7686 155.191 64.8142 155.304 64.8364 155.423C64.8586 155.541 64.857 155.663 64.8317 155.781C64.8064 155.899 64.7579 156.01 64.6889 156.11C64.6199 156.209 64.5319 156.294 64.4298 156.359C64.3277 156.425 64.2136 156.47 64.0939 156.491C63.9743 156.513 63.8515 156.511 63.7325 156.486Z" fill="#E6E6E6"/>
<path d="M41.5547 110.699C44.2461 110.699 46.428 108.539 46.428 105.873C46.428 103.207 44.2461 101.046 41.5547 101.046C38.8632 101.046 36.6814 103.207 36.6814 105.873C36.6814 108.539 38.8632 110.699 41.5547 110.699Z" fill="#6B7588"/>
<path d="M143.309 93.7865C143.737 94.1524 144.242 94.4188 144.788 94.5661C145.333 94.7134 145.905 94.7379 146.462 94.6378C147.018 94.5377 147.545 94.3156 148.003 93.9877C148.462 93.6598 148.841 93.2344 149.111 92.7428L153.109 85.489L150.086 83.0068L143.496 87.952C143.045 88.2899 142.677 88.7233 142.418 89.2204C142.158 89.7175 142.014 90.2657 141.996 90.825C141.978 91.3843 142.087 91.9405 142.314 92.4529C142.541 92.9654 142.881 93.421 143.309 93.7865Z" fill="#FFB9B9"/>
<path d="M147.989 83.672L152.657 87.4006L178.106 67.8628L176.6 33.8579C175.169 34.992 173.979 36.3958 173.099 37.9883C172.219 39.5807 171.667 41.3302 171.474 43.1354L167.114 62.3444L147.989 83.672Z" fill="white"/>
<path opacity="0.16" d="M197.08 162.719H203.405L204.007 107.833H191.358L197.08 162.719Z" fill="#D50000"/>
<path opacity="0.16" d="M181.419 165.701H187.744L188.346 107.237L175.697 106.64L181.419 165.701Z" fill="#D50000"/>
<path d="M173.287 112.606L188.948 113.203L189.551 109.921L190.454 114.396L204.911 113.799C204.908 99.2917 204.596 83.2613 206.417 77.7063L172.986 80.9875C170.353 92.2276 170.029 102.876 173.287 112.606Z" fill="black"/>
<path d="M200.722 177.037C204.103 177.037 206.753 178.337 206.446 175.002L205.57 163.728C205.553 163.25 205.396 162.788 205.119 162.397C204.841 162.006 204.455 161.703 204.007 161.526C201.598 158.728 199.188 158.43 196.779 160.631C195.996 161.601 195.539 162.789 195.473 164.03L194.983 175.227C194.813 178.482 197.432 177.037 200.722 177.037Z" fill="black"/>
<path d="M169.849 177.195L185.923 176.773C186.589 176.682 187.197 176.35 187.63 175.841C188.064 175.333 188.292 174.684 188.272 174.019L188.575 166.239C188.594 165.856 188.462 165.48 188.206 165.192C187.95 164.904 187.59 164.726 187.204 164.697L184.732 164.509C184.439 161.845 182.802 161.199 180.516 161.526L173.288 169.579L168.524 170.9C167.761 171.112 167.101 171.593 166.671 172.252C166.24 172.912 166.067 173.704 166.184 174.481C166.311 175.32 166.768 176.076 167.454 176.584C168.14 177.092 169.001 177.311 169.849 177.195Z" fill="black"/>
<path opacity="0.16" fill-rule="evenodd" clip-rule="evenodd" d="M195.084 19.6779C196.693 18.0164 197.683 15.7608 197.683 13.2762C197.683 8.1693 193.503 4.0293 188.346 4.0293C183.19 4.0293 179.01 8.1693 179.01 13.2762C179.01 17.4098 181.748 20.9099 185.526 22.094C185.889 25.3382 185.374 27.9732 183.527 29.6824L199.49 25.208C196.522 24.0647 195.069 22.2139 195.084 19.6779Z" fill="#D50000"/>
<path d="M172.083 84.8654C181.091 86.0056 189.391 82.5511 197.231 79.9436C200.77 78.7665 204.336 79.9954 207.621 78.0047C206.2 64.1442 207.58 48.5314 210.598 31.8934C210.77 30.9515 210.591 29.9797 210.093 29.1594C209.595 28.339 208.812 27.7261 207.892 27.435L197.984 24.3127L189.25 27.2956L184.732 28.1905L175.43 34.4158C174.887 34.779 174.461 35.2897 174.204 35.8866C173.947 36.4836 173.87 37.1413 173.982 37.7807C176.776 53.4281 176.129 69.4886 172.083 84.8654Z" fill="white"/>
<path opacity="0.16" d="M197.381 80.0927L200.393 87.8481L203.405 83.3738L199.49 79.4961L197.381 80.0927Z" fill="#D50000"/>
<path d="M179.387 9.97905C183.017 7.67157 186.637 6.91152 190.248 7.56075C191.346 7.76375 192.391 8.18809 193.317 8.80746C194.243 9.42684 195.03 10.228 195.631 11.1613C196.231 12.0946 196.632 13.1402 196.807 14.2331C196.983 15.3259 196.929 16.4429 196.651 17.5146C196.644 17.5435 196.636 17.5724 196.628 17.6013L197.168 16.5968C198.599 13.9329 199.088 10.8707 198.555 7.89956C198.146 5.618 196.916 3.56079 195.092 2.10962C193.268 0.658452 190.974 -0.0881602 188.636 0.00830417L186.605 0.0921198C184.268 0.18857 182.044 1.1151 180.34 2.70224C178.635 4.28938 177.565 6.43105 177.324 8.73556C177.299 8.98443 177.345 9.23535 177.458 9.45932C177.57 9.68329 177.744 9.87117 177.96 10.0012C178.176 10.1313 178.424 10.1982 178.677 10.1943C178.929 10.1904 179.176 10.1158 179.387 9.97905Z" fill="black"/>
<path d="M198.887 79.4963L203.104 84.8655L217.861 63.0904L216.585 40.9682C216.422 38.1506 215.543 35.4195 214.028 33.029C212.514 30.6385 210.413 28.6662 207.922 27.2957L208.224 61.3006L198.887 79.4963Z" fill="white"/>
<path d="M103.692 60.2395C103.554 60.1529 103.387 60.1242 103.227 60.1596C103.067 60.1949 102.929 60.2916 102.841 60.4283L67.4937 115.637C67.4063 115.773 67.3773 115.939 67.413 116.097C67.4487 116.255 67.5463 116.393 67.6843 116.48L112.591 144.683C112.729 144.769 112.896 144.798 113.056 144.763C113.216 144.727 113.354 144.631 113.442 144.494L148.789 89.2856C148.877 89.1487 148.906 88.983 148.87 88.8249C148.834 88.6669 148.737 88.5293 148.599 88.4424L103.692 60.2395Z" fill="#D50000"/>
<path d="M104.302 62.9377C104.164 62.8512 103.997 62.8224 103.837 62.8578C103.677 62.8932 103.538 62.9898 103.451 63.1265L70.2178 115.033C70.1304 115.17 70.1014 115.335 70.1371 115.493C70.1729 115.651 70.2704 115.789 70.4084 115.876L111.981 141.985C112.119 142.071 112.286 142.1 112.446 142.065C112.606 142.029 112.745 141.933 112.832 141.796L146.065 89.8899C146.153 89.753 146.182 89.5874 146.146 89.4293C146.11 89.2712 146.013 89.1337 145.875 89.0468L104.302 62.9377Z" fill="white"/>
<path d="M126.026 108.069L95.3938 88.8305C95.2912 88.7661 95.2024 88.6822 95.1324 88.5838C95.0625 88.4854 95.0129 88.3742 94.9863 88.2568C94.9598 88.1394 94.9569 88.0179 94.9777 87.8993C94.9986 87.7808 95.0428 87.6674 95.1079 87.5658C95.1729 87.4642 95.2576 87.3762 95.357 87.307C95.4564 87.2377 95.5685 87.1886 95.6871 87.1623C95.8057 87.136 95.9283 87.1331 96.048 87.1537C96.1678 87.1744 96.2822 87.2182 96.3848 87.2826L127.017 106.521C127.12 106.585 127.209 106.669 127.278 106.768C127.348 106.866 127.398 106.977 127.425 107.095C127.451 107.212 127.454 107.333 127.433 107.452C127.412 107.571 127.368 107.684 127.303 107.786C127.238 107.887 127.153 107.975 127.054 108.044C126.955 108.114 126.842 108.163 126.724 108.189C126.605 108.215 126.483 108.218 126.363 108.198C126.243 108.177 126.129 108.133 126.026 108.069Z" fill="#D50000"/>
<path d="M135.522 93.8125L115.2 81.0493C114.914 80.8695 114.903 80.3772 115.177 79.9498C115.451 79.5224 115.905 79.3216 116.191 79.5015L136.513 92.2646C136.8 92.4444 136.81 92.9367 136.536 93.3641C136.263 93.7916 135.809 93.9923 135.522 93.8125Z" fill="#D50000"/>
<path d="M132.681 98.25L112.359 85.4869C112.073 85.307 112.062 84.8148 112.336 84.3873C112.61 83.9599 113.064 83.7591 113.35 83.939L133.672 96.7021C133.959 96.8819 133.969 97.3742 133.695 97.8016C133.422 98.2291 132.968 98.4298 132.681 98.25Z" fill="#D50000"/>
<path d="M122.822 113.074L92.1894 93.835C91.9825 93.7047 91.8363 93.4984 91.7828 93.2614C91.7294 93.0243 91.7732 92.776 91.9045 92.5709C92.0358 92.3658 92.2439 92.2208 92.4832 92.1675C92.7224 92.1143 92.9732 92.1573 93.1804 92.2871L123.813 111.526C123.915 111.59 124.004 111.674 124.074 111.772C124.144 111.871 124.194 111.982 124.22 112.099C124.247 112.217 124.25 112.338 124.229 112.457C124.208 112.575 124.164 112.689 124.099 112.79C124.034 112.892 123.949 112.98 123.85 113.049C123.75 113.118 123.638 113.168 123.519 113.194C123.401 113.22 123.278 113.223 123.158 113.202C123.039 113.182 122.924 113.138 122.822 113.074H122.822Z" fill="#D50000"/>
<path d="M119.617 118.079L88.985 98.8406C88.7781 98.7103 88.6319 98.5039 88.5785 98.2669C88.5251 98.0299 88.5688 97.7816 88.7001 97.5765C88.8314 97.3715 89.0396 97.2264 89.2788 97.1732C89.518 97.1199 89.7688 97.1629 89.9761 97.2927L120.608 116.531C120.711 116.595 120.8 116.679 120.87 116.777C120.94 116.876 120.99 116.987 121.017 117.104C121.043 117.222 121.046 117.344 121.026 117.462C121.005 117.581 120.961 117.694 120.895 117.796C120.83 117.898 120.746 117.986 120.646 118.055C120.547 118.124 120.434 118.173 120.316 118.2C120.197 118.226 120.074 118.229 119.954 118.208C119.835 118.187 119.72 118.143 119.617 118.079Z" fill="#D50000"/>
<path d="M116.413 123.084L85.7807 103.845C85.6779 103.781 85.5889 103.697 85.5188 103.599C85.4488 103.5 85.399 103.389 85.3723 103.271C85.3457 103.154 85.3427 103.032 85.3635 102.914C85.3843 102.795 85.4286 102.681 85.4937 102.58C85.5588 102.478 85.6436 102.39 85.7431 102.321C85.8426 102.251 85.9549 102.202 86.0736 102.176C86.1923 102.15 86.315 102.147 86.4348 102.168C86.5546 102.189 86.6691 102.233 86.7717 102.297L117.404 121.536C117.611 121.666 117.757 121.872 117.811 122.109C117.864 122.347 117.82 122.595 117.689 122.8C117.558 123.005 117.349 123.15 117.11 123.203C116.871 123.257 116.62 123.214 116.413 123.084Z" fill="#D50000"/>
<path d="M113.209 128.088L82.5763 108.85C82.369 108.72 82.2225 108.514 82.1688 108.277C82.1152 108.039 82.1589 107.791 82.2904 107.586C82.4218 107.38 82.6301 107.235 82.8696 107.182C83.1091 107.129 83.3601 107.172 83.5673 107.302L114.2 126.541C114.407 126.671 114.553 126.877 114.606 127.114C114.66 127.351 114.616 127.599 114.485 127.805C114.353 128.01 114.145 128.155 113.906 128.208C113.667 128.261 113.416 128.218 113.209 128.088Z" fill="#D50000"/>
<path d="M110.004 133.093L79.3719 113.855C79.2693 113.79 79.1805 113.707 79.1106 113.608C79.0407 113.51 78.991 113.399 78.9645 113.281C78.9379 113.164 78.935 113.042 78.9559 112.924C78.9767 112.805 79.0209 112.692 79.086 112.59C79.1511 112.489 79.2357 112.401 79.3351 112.331C79.4345 112.262 79.5467 112.213 79.6653 112.187C79.7838 112.16 79.9065 112.157 80.0262 112.178C80.1459 112.199 80.2603 112.243 80.363 112.307L110.995 131.545C111.202 131.676 111.349 131.882 111.403 132.119C111.456 132.356 111.413 132.605 111.281 132.81C111.15 133.015 110.941 133.161 110.702 133.214C110.462 133.267 110.211 133.224 110.004 133.093Z" fill="#D50000"/>
<path d="M107.003 82.8259C109.695 82.8259 111.876 80.665 111.876 77.9994C111.876 75.3338 109.695 73.1729 107.003 73.1729C104.312 73.1729 102.13 75.3338 102.13 77.9994C102.13 80.665 104.312 82.8259 107.003 82.8259Z" fill="#D50000"/>
<path d="M11.2883 109.091C11.1657 109.091 11.0444 109.116 10.9325 109.166C10.8206 109.215 10.7205 109.288 10.6388 109.378C10.5571 109.469 10.4956 109.576 10.4584 109.691C10.4211 109.807 10.409 109.929 10.4227 110.05L17.9734 176.419C17.9972 176.63 18.0987 176.825 18.2584 176.966C18.4181 177.108 18.6248 177.186 18.8389 177.186H132.012C132.226 177.186 132.432 177.108 132.592 176.966C132.752 176.825 132.853 176.63 132.877 176.419L140.428 110.05C140.441 109.929 140.429 109.807 140.392 109.691C140.355 109.576 140.293 109.469 140.212 109.378C140.13 109.287 140.03 109.215 139.918 109.165C139.806 109.115 139.685 109.09 139.562 109.091H11.2883Z" fill="#C7C9D9"/>
<path d="M21.5842 120.238L57.8555 120.043C58.1006 120.041 58.335 119.943 58.5073 119.77C58.6795 119.598 58.7755 119.364 58.7742 119.122C58.7728 118.879 58.6743 118.646 58.5002 118.475C58.3261 118.305 58.0906 118.209 57.8455 118.21L21.5742 118.405C21.3288 118.406 21.094 118.504 20.9214 118.676C20.7488 118.849 20.6526 119.083 20.6539 119.326C20.6553 119.569 20.754 119.802 20.9285 119.973C21.103 120.144 21.3388 120.239 21.5842 120.238Z" fill="white"/>
<path d="M21.5842 125.905L43.0981 125.711C43.3432 125.709 43.5776 125.611 43.7498 125.438C43.9221 125.265 44.018 125.032 44.0167 124.789C44.0154 124.546 43.9168 124.314 43.7427 124.143C43.5686 123.972 43.3332 123.877 43.0881 123.877L21.5742 124.072C21.3288 124.073 21.094 124.171 20.9214 124.344C20.7488 124.517 20.6526 124.751 20.6539 124.994C20.6553 125.237 20.754 125.469 20.9285 125.64C21.103 125.811 21.3388 125.907 21.5842 125.905Z" fill="white"/>
<path d="M228.159 177.51H0V176.859H228.278L228.159 177.51Z" fill="black"/>
</svg>
