<svg width="212" height="182" viewBox="0 0 212 182" fill="none" xmlns="http://www.w3.org/2000/svg">
<g clip-path="url(#clip0_9_4611)">
<path d="M62.3027 180.101C65.7059 177.217 67.7731 172.661 67.231 168.226C66.6889 163.791 63.3311 159.713 58.9757 158.771C54.6203 157.83 49.6554 160.437 48.3325 164.704C47.6044 156.477 46.7655 147.906 42.4044 140.901C38.4555 134.558 31.616 130.019 24.2035 129.207C16.791 128.395 8.98659 131.461 4.36369 137.329C-0.259215 143.196 -1.39111 151.726 1.84665 158.463C4.23179 163.425 8.62607 167.118 13.2302 170.123C28.1077 179.749 45.9513 183.664 63.478 181.147" fill="#EBEBF0"/>
<path d="M11.6938 131.632C17.81 136.628 23.421 142.215 28.4456 148.314C36.3091 157.826 42.6723 168.49 47.3136 179.935C47.6533 180.77 46.3014 181.133 45.9654 180.308C43.0139 173.071 39.3623 166.143 35.0631 159.621C28.3588 149.433 20.1452 140.329 10.7052 132.623C10.0072 132.053 11.0016 131.066 11.6938 131.632V131.632Z" fill="white"/>
<path d="M64.6534 180.101C61.2501 177.217 59.1829 172.661 59.7251 168.226C60.2672 163.791 63.6249 159.713 67.9803 158.771C72.3358 157.83 77.3007 160.437 78.6236 164.704C79.3516 156.477 80.1906 147.906 84.5517 140.901C88.5005 134.558 95.3401 130.019 102.753 129.207C110.165 128.395 117.969 131.461 122.592 137.329C127.215 143.196 128.347 151.726 125.109 158.463C122.724 163.425 118.33 167.118 113.726 170.123C98.8483 179.749 81.0047 183.664 63.478 181.147" fill="#EBEBF0"/>
<path d="M115.262 131.632C109.146 136.628 103.535 142.215 98.5105 148.314C90.647 157.826 84.2838 168.49 79.6425 179.935C79.3028 180.77 80.6547 181.133 80.9907 180.308C88.5846 161.707 100.708 145.312 116.251 132.623C116.949 132.053 115.954 131.066 115.262 131.632V131.632Z" fill="white"/>
<path d="M74.7523 81.8723C81.0483 81.8723 86.1522 76.7538 86.1522 70.4397C86.1522 64.1256 81.0483 59.0071 74.7523 59.0071C68.4564 59.0071 63.3525 64.1256 63.3525 70.4397C63.3525 76.7538 68.4564 81.8723 74.7523 81.8723Z" fill="#F2F2F2"/>
<path d="M39.6035 31.0295H118.145V35.339H49.6301C45.6016 35.339 41.6127 36.1347 37.8909 37.6808C34.1691 39.2268 30.7874 41.4929 27.9388 44.3496C25.0903 47.2064 22.8307 50.5978 21.2891 54.3303C19.7475 58.0628 18.954 62.0632 18.954 66.1032V115.064H10.3598C9.97994 115.064 9.61562 114.913 9.347 114.643C9.07838 114.374 8.92747 114.008 8.92746 113.627V61.7938C8.92746 57.7538 9.72092 53.7533 11.2625 50.0208C12.8042 46.2883 15.0637 42.8969 17.9123 40.0402C20.7608 37.1834 24.1425 34.9174 27.8643 33.3713C31.5861 31.8253 35.5751 31.0295 39.6035 31.0295Z" fill="#F2F2F2"/>
<path d="M54.7107 180.34V114.879H73.833V180.34C73.8326 180.78 73.658 181.202 73.3478 181.513C73.0376 181.824 72.617 181.999 72.1782 182H56.3655C55.9268 181.999 55.5062 181.824 55.196 181.513C54.8857 181.202 54.7112 180.78 54.7107 180.34Z" fill="#3A3A3C"/>
<path d="M4.88235 113.589V60.359C4.8919 51.8851 8.25268 43.7611 14.2274 37.7692C20.2021 31.7773 28.3028 28.4068 36.7524 28.3972H117.778V115.433H6.72104C6.23356 115.432 5.76621 115.238 5.42151 114.892C5.07681 114.546 4.88291 114.078 4.88235 113.589ZM117.042 29.1348H36.7524C28.4978 29.1442 20.5841 32.4369 14.7472 38.2905C8.91039 44.1442 5.62716 52.0807 5.61783 60.359V113.589C5.61815 113.882 5.73448 114.163 5.9413 114.371C6.14813 114.578 6.42855 114.695 6.72104 114.695H117.042V29.1348Z" fill="#3A3A3C"/>
<path d="M74.7524 76.3404C72.9974 76.3384 71.3149 75.6384 70.074 74.3939C68.8331 73.1494 68.1351 71.4621 68.1331 69.7021V22.1277C68.1328 21.8343 68.0164 21.5531 67.8096 21.3457C67.6028 21.1383 67.3224 21.0216 67.0299 21.0213H41.2883C40.8008 21.0207 40.3335 20.8263 39.9888 20.4806C39.6441 20.1349 39.4502 19.6662 39.4496 19.1773V1.84397C39.4502 1.35509 39.6441 0.886399 39.9888 0.54071C40.3335 0.195021 40.8008 0.000566114 41.2883 0H79.5329C80.0204 0.000559296 80.4878 0.195014 80.8325 0.540704C81.1772 0.886395 81.3711 1.35509 81.3716 1.84397V69.7021C81.3697 71.4621 80.6716 73.1494 79.4307 74.3939C78.1898 75.6384 76.5073 76.3384 74.7524 76.3404Z" fill="#D50000"/>
<path d="M120.719 27.6595C126.267 27.6478 131.592 29.8467 135.523 33.7725C139.454 37.6982 141.669 43.0292 141.68 48.5928V109.189H182.867C184.522 109.186 186.11 109.842 187.282 111.012C188.454 112.183 189.115 113.773 189.119 115.432H99.7585V48.5928C99.7701 43.0292 101.985 37.6982 105.916 33.7725C109.847 29.8467 115.172 27.6478 120.719 27.6595Z" fill="#3A3A3C"/>
<path d="M115.69 62.1666L120.03 80.1476L204.933 59.5351L200.593 41.5541C200.541 41.3343 200.434 41.1313 200.282 40.964C200.131 40.7967 199.939 40.6705 199.726 40.5971C199.569 40.5416 199.402 40.5165 199.236 40.5231L150.158 15.0387C149.87 14.8914 149.539 14.8521 149.225 14.9277C148.911 15.0034 148.635 15.1892 148.445 15.4514L124.793 48.53L115.876 61.0037C115.859 61.0255 115.848 61.0506 115.843 61.0772C115.837 61.1038 115.837 61.1313 115.843 61.1579C115.661 61.4608 115.606 61.8233 115.69 62.1666Z" fill="white"/>
<path d="M115.843 61.1579C115.847 61.1813 115.856 61.2036 115.869 61.2236C115.882 61.2436 115.898 61.2609 115.918 61.2744C115.941 61.2902 115.967 61.3012 115.994 61.3066C116.022 61.312 116.05 61.3118 116.077 61.3059C116.121 61.2941 116.16 61.267 116.187 61.2295L116.218 61.1869L116.682 60.5358L125.114 48.7476L148.759 15.6766C148.894 15.4892 149.092 15.3565 149.316 15.3026C149.54 15.2488 149.776 15.2773 149.981 15.3829L198.679 40.6699L199.116 40.8974C199.133 40.9049 199.151 40.9112 199.17 40.9165C199.203 40.9105 199.236 40.9072 199.27 40.9069C199.315 40.8915 199.354 40.8592 199.376 40.8166C199.388 40.7942 199.395 40.7696 199.398 40.7443C199.4 40.719 199.398 40.6935 199.39 40.6692C199.383 40.6449 199.37 40.6224 199.354 40.6028C199.338 40.5833 199.318 40.5671 199.296 40.5553L199.235 40.5231L150.158 15.0387C149.87 14.8914 149.539 14.8521 149.225 14.9277C148.911 15.0034 148.635 15.1892 148.445 15.4514L124.793 48.53L115.876 61.0037C115.86 61.0255 115.848 61.0506 115.843 61.0772C115.837 61.1038 115.837 61.1313 115.843 61.1579Z" fill="#3F3D56"/>
<path d="M141.342 62.9915L143.232 63.2017L157.258 64.76L166.557 65.7924L167.106 65.8536L178.709 56.7648L179.154 56.4166L181.894 54.2702L191.644 46.6338L191.703 46.0974L195.171 14.7078C195.218 14.2756 195.092 13.8422 194.821 13.5026C194.551 13.1631 194.157 12.9451 193.726 12.8965L147.444 7.75484C147.013 7.70764 146.581 7.83363 146.242 8.10522C145.904 8.37682 145.686 8.77188 145.638 9.2039L143.192 31.3454L141.836 43.621L140.622 54.6032L140.059 59.7033L139.895 61.1806C139.849 61.613 139.975 62.0464 140.246 62.3858C140.517 62.7252 140.911 62.943 141.342 62.9915Z" fill="#C7C9D9"/>
<path d="M154.06 35.4772L174.108 37.704L181.218 38.4935C181.532 38.5284 181.849 38.5009 182.153 38.4126C182.456 38.3244 182.739 38.1771 182.986 37.9791C183.232 37.7812 183.437 37.5365 183.59 37.259C183.742 36.9815 183.838 36.6767 183.873 36.3619C183.908 36.0471 183.88 35.7285 183.792 35.4243C183.704 35.1201 183.557 34.8363 183.36 34.5891C183.163 34.3418 182.919 34.136 182.642 33.9833C182.365 33.8306 182.061 33.7341 181.747 33.6992L172.904 32.7171L154.591 30.6806C153.957 30.6104 153.321 30.7955 152.823 31.1953C152.325 31.5952 152.006 32.177 151.936 32.8128C151.865 33.4487 152.05 34.0866 152.448 34.5862C152.846 35.0858 153.426 35.4063 154.06 35.4772Z" fill="white"/>
<path d="M152.919 44.371C152.971 44.3802 153.022 44.3895 153.075 44.3946L176.347 46.9802L180.233 47.4127C180.867 47.4831 181.503 47.2979 182.001 46.8979C182.499 46.4979 182.818 45.9159 182.889 45.2799C182.959 44.6439 182.774 44.006 182.375 43.5065C181.976 43.007 181.396 42.6869 180.762 42.6166L175.144 41.9932L156.709 39.9446L153.606 39.5998C152.986 39.5304 152.363 39.7057 151.869 40.0886C151.375 40.4715 151.049 41.032 150.96 41.6516C150.871 42.2713 151.025 42.9014 151.391 43.4089C151.756 43.9164 152.304 44.2614 152.919 44.3709V44.371Z" fill="white"/>
<path d="M150.285 52.2573C150.476 52.5748 150.737 52.844 151.048 53.0439C151.359 53.2438 151.712 53.3691 152.08 53.4099L161.618 54.4694L178.607 56.3569L178.61 56.356L179.154 56.4167L181.894 54.2702C181.911 54.1072 181.911 53.9428 181.895 53.7797C181.837 53.2322 181.594 52.7209 181.207 52.3303C180.82 51.9397 180.312 51.6934 179.767 51.6319L177.407 51.369L168.045 50.33L161.309 49.5808L152.609 48.6138C152.163 48.5643 151.712 48.6408 151.307 48.8348C150.902 49.0288 150.56 49.3325 150.318 49.7115C150.076 50.0905 149.945 50.5298 149.939 50.9797C149.933 51.4295 150.053 51.8721 150.285 52.2573L150.285 52.2573Z" fill="white"/>
<path d="M163.683 24.6059L168.671 25.16L170.874 25.4053L174.202 25.7747C174.836 25.8451 175.472 25.6599 175.97 25.2599C176.468 24.8599 176.788 24.2779 176.858 23.6419C176.928 23.0059 176.743 22.368 176.345 21.8685C175.946 21.369 175.365 21.0489 174.731 20.9786L164.214 19.8112C163.58 19.7405 162.944 19.9253 162.446 20.3249C161.948 20.7245 161.628 21.3062 161.558 21.9421C161.487 22.5779 161.672 23.2158 162.07 23.7153C162.469 24.2149 163.049 24.5352 163.683 24.6059V24.6059Z" fill="white"/>
<path d="M122.895 37.9606L128.977 63.1544L139.127 65.0899L148.516 66.8826L158.589 68.8049L161.808 69.4192C161.996 69.4549 162.19 69.45 162.377 69.4047C162.563 69.3595 162.738 69.2749 162.889 69.1567L165.471 67.1341L167.106 65.8536L178.709 56.7648L171.332 26.2015C171.259 25.8974 171.1 25.6209 170.874 25.4052C170.676 25.2143 170.433 25.0766 170.168 25.0046C169.903 24.9326 169.624 24.9286 169.357 24.9932L124.1 35.9806C123.679 36.0831 123.315 36.3493 123.089 36.7206C122.863 37.0919 122.793 37.5379 122.895 37.9606Z" fill="#D50000"/>
<path d="M136.84 58.0031C136.991 58.6246 137.381 59.1607 137.925 59.4939C138.47 59.827 139.124 59.9299 139.743 59.78L166.299 53.3328C166.919 53.1815 167.453 52.79 167.785 52.2441C168.118 51.6983 168.22 51.0426 168.071 50.4209C168.064 50.3901 168.056 50.3597 168.045 50.3299C167.876 49.7305 167.481 49.2202 166.945 48.9059C166.408 48.5916 165.771 48.4978 165.168 48.644L138.612 55.0912C137.992 55.2422 137.457 55.6336 137.125 56.1796C136.793 56.7255 136.69 57.3814 136.84 58.0031Z" fill="white"/>
<path d="M139.127 65.09L148.516 66.8826L168.405 62.0541C169.025 61.9036 169.559 61.5122 169.892 60.9662C170.224 60.4201 170.326 59.764 170.176 59.1422C170.026 58.5204 169.636 57.9839 169.091 57.6507C168.547 57.3175 167.893 57.2148 167.273 57.3653L140.717 63.8125C140.162 63.9461 139.673 64.2747 139.339 64.7387C139.258 64.8496 139.187 64.9671 139.127 65.09Z" fill="white"/>
<path d="M158.589 68.8048L161.808 69.4191C161.996 69.4548 162.19 69.4499 162.377 69.4047C162.563 69.3594 162.738 69.2749 162.889 69.1567L165.471 67.134L158.589 68.8048Z" fill="white"/>
<path d="M142.191 44.4939C142.341 45.1154 142.732 45.6515 143.276 45.9847C143.82 46.3178 144.474 46.4207 145.094 46.2707L155.38 43.7736C156 43.6223 156.534 43.2308 156.866 42.6849C157.198 42.1391 157.301 41.4834 157.152 40.8617C157.072 40.5276 156.921 40.2148 156.709 39.9448C156.424 39.5797 156.041 39.3045 155.605 39.152C155.168 38.9995 154.697 38.9762 154.248 39.0848L143.963 41.582C143.343 41.7326 142.808 42.1239 142.475 42.67C142.143 43.2161 142.041 43.8721 142.191 44.4939V44.4939Z" fill="white"/>
<path d="M148.515 66.8826L158.59 68.8053L161.808 69.4199C161.996 69.4551 162.19 69.45 162.376 69.4048C162.562 69.3596 162.737 69.2753 162.888 69.1576L165.473 67.1344L164.566 67.3546L162.651 68.8522C162.543 68.9364 162.419 68.9966 162.286 69.0289C162.152 69.0611 162.014 69.0648 161.88 69.0396L159.497 68.5851L149.422 66.6624L148.515 66.8826ZM178.61 56.3575L178.708 56.7639L179.155 56.4154L178.61 56.3575ZM148.515 66.8826L158.59 68.8053L161.808 69.4199C161.996 69.4551 162.19 69.45 162.376 69.4048C162.562 69.3596 162.737 69.2753 162.888 69.1576L165.473 67.1344L164.566 67.3546L162.651 68.8522C162.543 68.9364 162.419 68.9966 162.286 69.0289C162.152 69.0611 162.014 69.0648 161.88 69.0396L159.497 68.5851L149.422 66.6624L148.515 66.8826ZM148.515 66.8826L158.59 68.8053L161.808 69.4199C161.996 69.4551 162.19 69.45 162.376 69.4048C162.562 69.3596 162.737 69.2753 162.888 69.1576L165.473 67.1344L164.566 67.3546L162.651 68.8522C162.543 68.9364 162.419 68.9966 162.286 69.0289C162.152 69.0611 162.014 69.0648 161.88 69.0396L159.497 68.5851L149.422 66.6624L148.515 66.8826ZM115.69 62.1668L127.058 109.266C127.143 109.614 127.361 109.914 127.666 110.1C127.971 110.287 128.337 110.345 128.685 110.261L210.97 90.284C211.317 90.1994 211.616 89.9801 211.802 89.6744C211.988 89.3686 212.046 89.0013 211.962 88.6531L200.593 41.5543C200.541 41.3345 200.434 41.1315 200.282 40.9642C200.131 40.7969 199.939 40.6707 199.726 40.5973C199.569 40.5418 199.402 40.5166 199.235 40.5232C199.041 40.5289 198.851 40.5791 198.679 40.6701C198.599 40.7079 198.524 40.7546 198.455 40.8092L191.702 46.0976L181.895 53.7809L178.609 56.3547L178.61 56.3575L178.607 56.3582L166.558 65.7912L164.566 67.3546L162.651 68.8522C162.543 68.9364 162.419 68.9966 162.286 69.0289C162.152 69.0611 162.014 69.0648 161.88 69.0396L159.497 68.5851L149.422 66.6624L139.338 64.7389L117.251 60.5237C117.063 60.4862 116.868 60.4905 116.682 60.536C116.431 60.5975 116.202 60.7302 116.024 60.918C115.956 60.9918 115.895 61.0722 115.843 61.1581C115.661 61.461 115.606 61.8234 115.69 62.1668ZM148.515 66.8826L158.59 68.8053L161.808 69.4199C161.996 69.4551 162.19 69.45 162.376 69.4048C162.562 69.3596 162.737 69.2753 162.888 69.1576L165.473 67.1344L164.566 67.3546L162.651 68.8522C162.543 68.9364 162.419 68.9966 162.286 69.0289C162.152 69.0611 162.014 69.0648 161.88 69.0396L159.497 68.5851L149.422 66.6624L148.515 66.8826ZM148.515 66.8826L158.59 68.8053L161.808 69.4199C161.996 69.4551 162.19 69.45 162.376 69.4048C162.562 69.3596 162.737 69.2753 162.888 69.1576L165.473 67.1344L164.566 67.3546L162.651 68.8522C162.543 68.9364 162.419 68.9966 162.286 69.0289C162.152 69.0611 162.014 69.0648 161.88 69.0396L159.497 68.5851L149.422 66.6624L148.515 66.8826ZM148.515 66.8826L158.59 68.8053L161.808 69.4199C161.996 69.4551 162.19 69.45 162.376 69.4048C162.562 69.3596 162.737 69.2753 162.888 69.1576L165.473 67.1344L164.566 67.3546L162.651 68.8522C162.543 68.9364 162.419 68.9966 162.286 69.0289C162.152 69.0611 162.014 69.0648 161.88 69.0396L159.497 68.5851L149.422 66.6624L148.515 66.8826Z" fill="white"/>
<path d="M148.515 66.8825L158.59 68.8053L161.808 69.4198C161.996 69.4551 162.19 69.45 162.376 69.4048C162.562 69.3596 162.737 69.2753 162.888 69.1575L165.473 67.1344L164.566 67.3545L162.651 68.8522C162.543 68.9363 162.419 68.9965 162.286 69.0288C162.152 69.0611 162.014 69.0648 161.88 69.0396L159.497 68.5851L149.422 66.6624L148.515 66.8825ZM178.61 56.3575L178.708 56.7639L179.155 56.4154L178.61 56.3575ZM148.515 66.8825L158.59 68.8053L161.808 69.4198C161.996 69.4551 162.19 69.45 162.376 69.4048C162.562 69.3596 162.737 69.2753 162.888 69.1575L165.473 67.1344L164.566 67.3545L162.651 68.8522C162.543 68.9363 162.419 68.9965 162.286 69.0288C162.152 69.0611 162.014 69.0648 161.88 69.0396L159.497 68.5851L149.422 66.6624L148.515 66.8825ZM148.515 66.8825L158.59 68.8053L161.808 69.4198C161.996 69.4551 162.19 69.45 162.376 69.4048C162.562 69.3596 162.737 69.2753 162.888 69.1575L165.473 67.1344L164.566 67.3545L162.651 68.8522C162.543 68.9363 162.419 68.9965 162.286 69.0288C162.152 69.0611 162.014 69.0648 161.88 69.0396L159.497 68.5851L149.422 66.6624L148.515 66.8825ZM116.218 61.1871L116.267 61.2247C116.276 61.211 116.29 61.1987 116.301 61.1843C116.413 61.068 116.551 60.9813 116.704 60.9318C116.858 60.8824 117.02 60.8719 117.179 60.9011L139.127 65.0884L148.515 66.8825L158.59 68.8053L161.808 69.4198C161.996 69.4551 162.19 69.45 162.376 69.4048C162.562 69.3596 162.737 69.2753 162.888 69.1575L165.473 67.1344L164.566 67.3545L162.651 68.8522C162.543 68.9363 162.419 68.9965 162.286 69.0288C162.152 69.0611 162.014 69.0648 161.88 69.0396L159.497 68.5851L149.422 66.6624L139.338 64.7389L117.251 60.5237C117.063 60.4862 116.868 60.4904 116.682 60.536L116.218 61.1871ZM115.69 62.1668L127.058 109.266C127.143 109.614 127.361 109.914 127.666 110.1C127.971 110.287 128.337 110.345 128.685 110.261L210.97 90.2839C211.317 90.1994 211.616 89.9801 211.802 89.6744C211.988 89.3686 212.046 89.0013 211.962 88.6531L200.593 41.5543C200.541 41.3345 200.434 41.1315 200.282 40.9642C200.131 40.7969 199.939 40.6707 199.726 40.5973C199.569 40.5418 199.402 40.5166 199.235 40.5232C199.041 40.5289 198.851 40.5791 198.679 40.6701C198.599 40.7079 198.524 40.7546 198.455 40.8092L191.702 46.0976L181.895 53.7809L178.609 56.3547L178.61 56.3575L178.607 56.3582L166.558 65.7912L164.566 67.3545L162.651 68.8522C162.543 68.9363 162.419 68.9965 162.286 69.0288C162.152 69.0611 162.014 69.0648 161.88 69.0396L159.497 68.5851L149.422 66.6624L139.338 64.7389L117.251 60.5237C117.063 60.4862 116.868 60.4904 116.682 60.536C116.431 60.5975 116.202 60.7301 116.024 60.918C115.956 60.9918 115.895 61.0722 115.843 61.1581C115.661 61.461 115.606 61.8234 115.69 62.1668ZM116.064 62.0758C116.031 61.937 116.029 61.7924 116.058 61.6526C116.087 61.5128 116.148 61.3814 116.234 61.2679C116.242 61.2513 116.253 61.2365 116.267 61.2248C116.276 61.211 116.29 61.1987 116.301 61.1843C116.413 61.068 116.551 60.9813 116.704 60.9318C116.858 60.8824 117.02 60.8719 117.179 60.9011L139.127 65.0884L148.515 66.8825L158.59 68.8053L161.808 69.4198C161.996 69.4551 162.19 69.45 162.376 69.4048C162.562 69.3596 162.737 69.2753 162.888 69.1575L165.473 67.1344L167.107 65.854L178.708 56.7638L179.155 56.4154L181.893 54.27L191.645 46.6324L198.695 41.111C198.802 41.0272 198.926 40.9672 199.058 40.9351C199.095 40.926 199.132 40.9199 199.17 40.9166C199.203 40.9106 199.236 40.9074 199.27 40.9071C199.382 40.906 199.494 40.9243 199.601 40.9612C199.753 41.0143 199.889 41.1046 199.997 41.224C200.106 41.3433 200.183 41.488 200.221 41.6447L211.59 88.7435C211.62 88.8669 211.625 88.995 211.606 89.1205C211.586 89.246 211.542 89.3664 211.476 89.4748C211.41 89.5833 211.324 89.6776 211.221 89.7524C211.119 89.8272 211.003 89.881 210.88 89.9108L128.595 109.888C128.346 109.947 128.085 109.906 127.867 109.772C127.649 109.639 127.493 109.424 127.433 109.175L116.064 62.0758ZM148.515 66.8825L158.59 68.8053L161.808 69.4199C161.996 69.4551 162.19 69.45 162.376 69.4048C162.562 69.3596 162.737 69.2753 162.888 69.1576L165.473 67.1344L164.566 67.3546L162.651 68.8522C162.543 68.9364 162.419 68.9965 162.286 69.0288C162.152 69.0611 162.014 69.0648 161.88 69.0396L159.497 68.5851L149.422 66.6624L148.515 66.8825ZM148.515 66.8825L158.59 68.8053L161.808 69.4199C161.996 69.4551 162.19 69.45 162.376 69.4048C162.562 69.3596 162.737 69.2753 162.888 69.1576L165.473 67.1344L164.566 67.3546L162.651 68.8522C162.543 68.9364 162.419 68.9965 162.286 69.0288C162.152 69.0611 162.014 69.0648 161.88 69.0396L159.497 68.5851L149.422 66.6624L148.515 66.8825ZM148.515 66.8825L158.59 68.8053L161.808 69.4199C161.996 69.4551 162.19 69.45 162.376 69.4048C162.562 69.3596 162.737 69.2753 162.888 69.1576L165.473 67.1344L164.566 67.3546L162.651 68.8522C162.543 68.9364 162.419 68.9965 162.286 69.0288C162.152 69.0611 162.014 69.0648 161.88 69.0396L159.497 68.5851L149.422 66.6624L148.515 66.8825Z" fill="#3A3A3C"/>
<path d="M189.524 81.0306C189.338 80.2588 189.466 79.4448 189.878 78.7672C190.29 78.0895 190.954 77.6036 191.723 77.4159L202.109 74.8946C202.877 74.7109 203.687 74.8401 204.361 75.254C205.034 75.6679 205.517 76.3327 205.703 77.1027C205.889 77.8728 205.763 78.6854 205.352 79.3624C204.942 80.0395 204.281 80.5258 203.514 80.7149L193.128 83.2363C192.358 83.4222 191.547 83.2944 190.871 82.8809C190.195 82.4674 189.711 81.8019 189.524 81.0306Z" fill="#D50000"/>
<path d="M74.7524 72.2837C76.174 72.2837 77.3265 71.1279 77.3265 69.7022C77.3265 68.2764 76.174 67.1206 74.7524 67.1206C73.3307 67.1206 72.1782 68.2764 72.1782 69.7022C72.1782 71.1279 73.3307 72.2837 74.7524 72.2837Z" fill="white"/>
</g>
<defs>
<clipPath id="clip0_9_4611">
<rect width="212" height="182" fill="white"/>
</clipPath>
</defs>
</svg>
