<svg width="1440" height="180" viewBox="0 0 1440 180" fill="none" xmlns="http://www.w3.org/2000/svg">
<g style="mix-blend-mode:overlay" opacity="0.2">
<path fill-rule="evenodd" clip-rule="evenodd" d="M0 179.462C0 179.462 69.8688 125.852 177.339 127.06C248.951 127.862 314.386 186.177 409.84 179.462C474.299 174.927 545.161 111.17 617.142 112.086C690.659 113.022 767.653 176.965 879.606 179.462C991.558 181.958 1088.03 99.1059 1177.54 97.1162C1331.3 93.6959 1430.5 171.152 1440 179.443V1.40157L0 1.40157L0 179.462Z" fill="white"/>
</g>
<g style="mix-blend-mode:overlay" opacity="0.4">
<path fill-rule="evenodd" clip-rule="evenodd" d="M0 50.7972C0 50.7972 51.0254 151.249 232.12 148.116C376.354 145.62 405.562 80.8824 489.458 80.7406C558.559 80.6271 637.413 150.88 709.359 148.116C780.645 145.377 845.261 73.8069 915.072 73.2558C983.082 72.7209 1040.42 153.036 1149.16 155.601C1257.91 158.166 1290.02 101.408 1337.43 80.7406C1411.16 48.6049 1440 43.3124 1440 43.3124V3.05176e-05L0 3.05176e-05L0 50.7972Z" fill="white"/>
</g>
<g style="mix-blend-mode:overlay" opacity="0.6">
<path fill-rule="evenodd" clip-rule="evenodd" d="M1440 111.324C1405 85.8999 1358.6 33.4047 1134.97 36.7277C1074.32 37.6274 945.926 116.508 879.606 119.073C803.032 122.039 723.875 58.8459 645.516 59.1863C565.455 59.5348 493.321 115.523 418.522 119.073C336.499 122.967 251.7 44.6016 184.435 51.7014C42.5626 66.6711 0 111.588 0 111.588L0 0.90023L1440 0.90023V111.324Z" fill="white"/>
</g>
</svg>
