<?xml version="1.0" encoding="utf-8"?>
<svg viewBox="0 0 88 88" fill="none" xmlns="http://www.w3.org/2000/svg">
  <defs>
    <linearGradient id="paint0_linear_57:170" x1="58.6375" y1="4.7311" x2="22.3064" y2="-3.71264" gradientUnits="userSpaceOnUse">
      <stop stop-color="#990000"/>
      <stop offset="1" stop-color="#FF0000"/>
    </linearGradient>
    <linearGradient id="paint0_linear_57:169" x1="-4.10419" y1="57.2689" x2="32.2269" y2="65.7126" gradientUnits="userSpaceOnUse">
      <stop stop-color="#990000"/>
      <stop offset="1" stop-color="#FF0000"/>
    </linearGradient>
  </defs>
  <path fill-rule="evenodd" clip-rule="evenodd" d="M0 44C0 19.6995 19.6995 0 44 0C55.6695 0 66.8611 4.6357 75.1127 12.8873C83.3643 21.1389 88 32.3305 88 44C88 68.3005 68.3005 88 44 88C19.6995 88 0 68.3005 0 44ZM45.408 66.2302C57.1334 65.4863 66.2569 55.749 66.2369 44C66.2247 32.2745 57.11 22.5732 45.408 21.8308H44.8529H44H43.1471H42.592C30.8733 22.569 21.7467 32.2886 21.7467 44.0305C21.7467 55.7723 30.8733 65.492 42.592 66.2302H43.1471H44H44.8529H45.408Z" fill="#D50000"/>
  <path d="M 47.596 3.403 L 48.361 3.795 C 53.444 6.686 55.335 13.077 52.644 18.269 C 49.952 23.461 43.641 25.599 38.349 23.112 C 38.099 22.976 37.842 22.854 37.591 22.732 L 35.1 21.702 C 24.359 17.001 13.798 22.236 8.405 32.648 C 3.013 43.061 6.625 55.871 16.661 61.933 C 1.258 53.118 -4.449 33.72 3.724 17.966 C 11.979 2.015 31.443 -4.446 47.596 3.403 Z" fill="url(#paint0_linear_57:170)" transform="matrix(1, 0, 0, 1, 16.312853, 1.573497)"/>
  <path d="M6.93719 58.5974L6.17226 58.2047C1.08967 55.3135 -0.801187 48.9227 1.88986 43.7307C4.58091 38.5387 10.8924 36.4007 16.184 38.8885C16.4345 39.024 16.6917 39.1458 16.9422 39.2677L17.4499 39.5047C28.1907 44.2057 40.7358 39.7644 46.1279 29.3519C51.52 18.9394 47.9088 6.12863 37.8728 0.0666504C53.2754 8.88164 58.9827 28.28 50.8089 44.0341C42.5539 59.9854 23.0899 66.4465 6.93719 58.5974Z" fill="url(#paint0_linear_57:169)" transform="matrix(1, 0, 0, 1, 17.629908, 24.902623)"/>
</svg>