<svg width="190" height="28" viewBox="0 0 190 28" fill="none" xmlns="http://www.w3.org/2000/svg">
<path d="M5.79037 14.0397C5.79037 9.47875 9.20113 5.63173 13.8414 5.63173C18.4816 5.63173 21.932 9.47875 21.932 14.0397C21.932 18.6006 18.4816 22.3683 13.8414 22.3683C9.20113 22.3683 5.79037 18.6006 5.79037 14.0397ZM0 14.0397C0 21.7337 6.10765 28 13.8414 28C21.6147 28 27.7224 21.7337 27.7224 14.0397C27.7224 6.26629 21.6147 0 13.8414 0C6.10765 0 0 6.26629 0 14.0397Z" fill="black"/>
<path d="M43.5567 5.43343C45.738 5.43343 46.8484 7.57507 46.8484 9.28045C46.8484 11.0652 45.6586 13.1275 43.398 13.1275H38.2025V5.43343H43.5567ZM52.6388 9.12181C52.5595 4.67989 49.6643 0.317281 43.5567 0.317281H35.1884C33.4433 0.317281 32.4518 1.66572 32.4122 3.29178V25.1445C32.4122 26.5722 33.8003 27.8414 35.3074 27.8414C36.8938 27.8414 38.2025 26.6119 38.2025 25.1445V18.0057H40.8598L46.0949 26.6516C46.8484 27.8414 48.5935 28.1983 49.8626 27.4448C51.211 26.6516 51.7266 24.8669 50.9334 23.6771L46.4915 17.2918C50.5368 16.102 52.5198 12.6912 52.6388 9.12181Z" fill="black"/>
<path d="M73.3026 5.43343C74.5321 5.43343 75.6822 4.20397 75.6822 2.89518C75.6822 1.46742 74.6114 0.317281 73.3026 0.317281H57.042C55.7332 0.317281 54.6624 1.46742 54.6624 2.89518C54.6624 4.20397 55.8125 5.43343 57.042 5.43343H62.2771V25.1445C62.2771 26.5722 63.6652 27.8414 65.1723 27.8414C66.7587 27.8414 68.0675 26.6119 68.0675 25.1445V5.43343H73.3026Z" fill="black"/>
<path d="M91.5019 21.1785L93.366 26.1756C93.8815 27.5241 95.5473 28.1586 97.0147 27.6827C98.4425 27.2068 99.2356 25.4221 98.7597 24.0737L90.8674 2.81586C90.2328 1.15014 88.9637 0.118981 86.941 0.118981H86.7031C84.6804 0.118981 83.4113 1.15014 82.7767 2.81586L74.8844 24.0737C74.4085 25.4221 75.2017 27.2068 76.6294 27.6827C78.0968 28.1586 79.7626 27.5241 80.2781 26.1756L82.1422 21.1785H91.5019ZM84.0459 16.1416L86.8221 6.62323L89.5983 16.1416H84.0459Z" fill="black"/>
<path d="M111.278 13.8414L118.734 4.08499C119.647 2.93484 119.052 1.30878 117.783 0.515581C116.632 -0.1983 114.927 0.0793191 114.174 1.1898L108.344 9.28045V2.81586C108.344 1.34844 107.035 0.118981 105.448 0.118981C103.941 0.118981 102.593 1.3881 102.553 2.81586V25.1445C102.553 26.5722 103.941 27.8414 105.448 27.8414C107.035 27.8414 108.344 26.6119 108.344 25.1445V18.4023L116.038 27.0878C116.91 28.0793 118.774 28.0793 119.805 27.0878C120.916 26.0963 121.074 24.272 120.083 23.3201L111.278 13.8414Z" fill="black"/>
<path d="M130.382 2.81586C130.382 1.34844 129.073 0.118981 127.487 0.118981C125.98 0.118981 124.631 1.3881 124.592 2.81586V25.1841C124.592 26.5326 125.425 27.6431 126.892 27.6431H138.274C139.544 27.6034 140.654 26.4136 140.654 25.1048C140.654 23.7167 139.583 22.5666 138.274 22.5666H130.382V2.81586Z" fill="black"/>
<path d="M158.544 21.1785L160.408 26.1756C160.924 27.5241 162.59 28.1586 164.057 27.6827C165.485 27.2068 166.278 25.4221 165.802 24.0737L157.91 2.81586C157.275 1.15014 156.006 0.118981 153.984 0.118981H153.746C151.723 0.118981 150.454 1.15014 149.819 2.81586L141.927 24.0737C141.451 25.4221 142.244 27.2068 143.672 27.6827C145.139 28.1586 146.805 27.5241 147.321 26.1756L149.185 21.1785H158.544ZM151.088 16.1416L153.865 6.62323L156.641 16.1416H151.088Z" fill="black"/>
<path d="M180.74 5.43343C182.921 5.43343 184.032 7.57507 184.032 9.28045C184.032 11.0652 182.842 13.1275 180.582 13.1275H175.386V5.43343H180.74ZM189.822 9.12181C189.743 4.67989 186.848 0.317281 180.74 0.317281H172.372C170.627 0.317281 169.635 1.66572 169.596 3.29178V25.1445C169.596 26.5722 170.984 27.8414 172.491 27.8414C174.077 27.8414 175.386 26.6119 175.386 25.1445V18.0057H178.043L183.278 26.6516C184.032 27.8414 185.777 28.1983 187.046 27.4448C188.395 26.6516 188.91 24.8669 188.117 23.6771L183.675 17.2918C187.72 16.102 189.703 12.6912 189.822 9.12181Z" fill="black"/>
</svg>
